<svg width="40" height="40" viewBox="0 0 40 40" fill="none" xmlns="http://www.w3.org/2000/svg">
<g filter="url(#filter0_d_16634_2)">
<rect x="4" y="2" width="32" height="32" rx="10" fill="#FF8484"/>
</g>
<g clip-path="url(#clip0_16634_2)">
<path d="M23.207 15.7969C23 15.7969 22.8322 15.9646 22.8322 16.1716V23.2535C22.8322 23.4604 23 23.6283 23.207 23.6283C23.4139 23.6283 23.5817 23.4604 23.5817 23.2535V16.1716C23.5817 15.9646 23.4139 15.7969 23.207 15.7969Z" fill="white"/>
<path d="M18.7854 15.7969C18.5785 15.7969 18.4107 15.9646 18.4107 16.1716V23.2535C18.4107 23.4604 18.5785 23.6283 18.7854 23.6283C18.9924 23.6283 19.1602 23.4604 19.1602 23.2535V16.1716C19.1602 15.9646 18.9924 15.7969 18.7854 15.7969Z" fill="white"/>
<path d="M15.5629 14.7634V23.9953C15.5629 24.541 15.763 25.0534 16.1126 25.4211C16.4605 25.7898 16.9447 25.9991 17.4514 26H24.541C25.0478 25.9991 25.532 25.7898 25.8798 25.4211C26.2293 25.0534 26.4294 24.541 26.4294 23.9953V14.7634C27.1242 14.5789 27.5745 13.9077 27.4815 13.1947C27.3884 12.4819 26.7811 11.9487 26.0622 11.9485H24.1437V11.4801C24.1459 11.0863 23.9902 10.708 23.7113 10.4298C23.4325 10.1517 23.0537 9.99683 22.6598 10H19.3325C18.9387 9.99683 18.5599 10.1517 18.281 10.4298C18.0022 10.708 17.8465 11.0863 17.8487 11.4801V11.9485H15.9302C15.2112 11.9487 14.6039 12.4819 14.5108 13.1947C14.4179 13.9077 14.8681 14.5789 15.5629 14.7634V14.7634ZM24.541 25.2506H17.4514C16.8107 25.2506 16.3124 24.7002 16.3124 23.9953V14.7963H25.68V23.9953C25.68 24.7002 25.1816 25.2506 24.541 25.2506ZM18.5981 11.4801C18.5956 11.285 18.6723 11.0972 18.8107 10.9595C18.9491 10.8218 19.1373 10.7461 19.3325 10.7495H22.6598C22.8551 10.7461 23.0433 10.8218 23.1816 10.9595C23.3201 11.0971 23.3968 11.285 23.3943 11.4801V11.9485H18.5981V11.4801ZM15.9302 12.6979H26.0622C26.4347 12.6979 26.7367 12.9999 26.7367 13.3724C26.7367 13.7449 26.4347 14.0469 26.0622 14.0469H15.9302C15.5577 14.0469 15.2557 13.7449 15.2557 13.3724C15.2557 12.9999 15.5577 12.6979 15.9302 12.6979V12.6979Z" fill="white"/>
<path d="M20.9962 15.7969C20.7892 15.7969 20.6215 15.9646 20.6215 16.1716V23.2535C20.6215 23.4604 20.7892 23.6283 20.9962 23.6283C21.2032 23.6283 21.3709 23.4604 21.3709 23.2535V16.1716C21.3709 15.9646 21.2032 15.7969 20.9962 15.7969Z" fill="white"/>
</g>
<defs>
<filter id="filter0_d_16634_2" x="0" y="0" width="40" height="40" filterUnits="userSpaceOnUse" color-interpolation-filters="sRGB">
<feFlood flood-opacity="0" result="BackgroundImageFix"/>
<feColorMatrix in="SourceAlpha" type="matrix" values="0 0 0 0 0 0 0 0 0 0 0 0 0 0 0 0 0 0 127 0" result="hardAlpha"/>
<feOffset dy="2"/>
<feGaussianBlur stdDeviation="2"/>
<feComposite in2="hardAlpha" operator="out"/>
<feColorMatrix type="matrix" values="0 0 0 0 0 0 0 0 0 0 0 0 0 0 0 0 0 0 0.1 0"/>
<feBlend mode="normal" in2="BackgroundImageFix" result="effect1_dropShadow_16634_2"/>
<feBlend mode="normal" in="SourceGraphic" in2="effect1_dropShadow_16634_2" result="shape"/>
</filter>
<clipPath id="clip0_16634_2">
<rect width="16" height="16" fill="white" transform="translate(13 10)"/>
</clipPath>
</defs>
</svg>
